<?xml version="1.0" encoding="utf-8"?>
<!-- Generator: Adobe Illustrator 23.1.1, SVG Export Plug-In . SVG Version: 6.00 Build 0)  -->
<svg version="1.1" id="Layer_1" xmlns="http://www.w3.org/2000/svg" xmlns:xlink="http://www.w3.org/1999/xlink" x="0px" y="0px"
	 viewBox="0 0 548 200" style="enable-background:new 0 0 548 200;" xml:space="preserve">
<style type="text/css">
	.st0{fill:#81E8FA;}
	.st1{fill:#0069FB;}
	.st2{fill:#49BCFB;}
</style>
<g>
	<path d="M150.35,130.94l-14.91,35.33h-10.57l-14.84-35.33h10.57l9.78,24.03l10.11-24.03H150.35z"/>
	<path d="M178.32,164.56c-1.01,0.74-2.24,1.3-3.71,1.67c-1.47,0.37-3.01,0.56-4.63,0.56c-4.2,0-7.45-1.07-9.75-3.22
		c-2.3-2.14-3.45-5.3-3.45-9.46V139.6h-5.45v-7.88h5.45v-8.6h10.24v8.6h8.8v7.88h-8.8v14.38c0,1.49,0.38,2.64,1.15,3.45
		c0.77,0.81,1.85,1.21,3.25,1.21c1.62,0,3-0.44,4.14-1.31L178.32,164.56z"/>
	<path d="M217.4,151.49h-26.73c0.48,2.19,1.62,3.92,3.41,5.19c1.79,1.27,4.03,1.9,6.7,1.9c1.84,0,3.47-0.27,4.89-0.82
		c1.42-0.55,2.75-1.41,3.97-2.59l5.45,5.91c-3.33,3.81-8.19,5.71-14.58,5.71c-3.98,0-7.51-0.78-10.57-2.33
		c-3.07-1.55-5.43-3.71-7.09-6.47c-1.66-2.76-2.5-5.89-2.5-9.39c0-3.46,0.82-6.58,2.46-9.36c1.64-2.78,3.9-4.95,6.76-6.5
		c2.87-1.55,6.07-2.33,9.62-2.33c3.46,0,6.59,0.74,9.39,2.23c2.8,1.49,5,3.62,6.6,6.4c1.6,2.78,2.4,6.01,2.4,9.69
		C217.59,148.86,217.53,149.78,217.4,151.49z M193.43,140.13c-1.58,1.31-2.54,3.11-2.89,5.38h17.4c-0.35-2.23-1.31-4.02-2.89-5.35
		c-1.58-1.34-3.5-2-5.78-2C196.95,138.16,195,138.82,193.43,140.13z"/>
	<path d="M231.35,164.46c-3-1.55-5.34-3.71-7.03-6.47c-1.69-2.76-2.53-5.89-2.53-9.39c0-3.5,0.84-6.63,2.53-9.39
		c1.68-2.76,4.03-4.91,7.03-6.47c3-1.55,6.38-2.33,10.15-2.33c3.72,0,6.97,0.78,9.75,2.33c2.78,1.55,4.8,3.78,6.07,6.67l-7.95,4.27
		c-1.84-3.24-4.49-4.86-7.95-4.86c-2.67,0-4.88,0.88-6.63,2.63c-1.75,1.75-2.63,4.14-2.63,7.16c0,3.02,0.88,5.41,2.63,7.16
		c1.75,1.75,3.96,2.63,6.63,2.63c3.5,0,6.15-1.62,7.95-4.86l7.95,4.33c-1.27,2.8-3.29,4.99-6.07,6.57
		c-2.78,1.58-6.03,2.36-9.75,2.36C237.73,166.79,234.35,166.01,231.35,164.46z"/>
	<path d="M295.05,134.35c2.69,2.63,4.04,6.52,4.04,11.69v20.23h-10.24v-18.65c0-2.8-0.61-4.89-1.84-6.27
		c-1.23-1.38-3-2.07-5.32-2.07c-2.58,0-4.64,0.8-6.17,2.4c-1.53,1.6-2.3,3.97-2.3,7.13v17.47h-10.24v-48.73h10.24v17.07
		c1.36-1.36,3-2.4,4.93-3.12c1.93-0.72,4.03-1.08,6.3-1.08C288.82,130.41,292.36,131.72,295.05,134.35z"/>
	<path d="M339.54,149.91h-29.49c0.09,2.67,0.76,5.05,2.04,7.12c1.27,2.08,2.99,3.69,5.15,4.83c2.17,1.14,4.61,1.71,7.32,1.71
		c2.23,0,4.3-0.4,6.21-1.21c1.9-0.81,3.49-2,4.76-3.58l1.9,2.17c-1.49,1.8-3.36,3.18-5.61,4.14c-2.26,0.96-4.7,1.44-7.32,1.44
		c-3.42,0-6.46-0.74-9.13-2.23c-2.67-1.49-4.76-3.55-6.27-6.17c-1.51-2.63-2.27-5.62-2.27-9c0-3.33,0.71-6.31,2.13-8.96
		c1.42-2.65,3.38-4.72,5.88-6.21c2.49-1.49,5.3-2.23,8.41-2.23c3.11,0,5.9,0.73,8.37,2.2c2.47,1.47,4.42,3.51,5.85,6.14
		c1.42,2.63,2.13,5.61,2.13,8.93L339.54,149.91z M316.75,136.22c-1.93,1.07-3.47,2.58-4.63,4.53c-1.16,1.95-1.83,4.15-2,6.6h26.27
		c-0.13-2.45-0.79-4.64-1.97-6.57c-1.18-1.93-2.74-3.44-4.66-4.53c-1.93-1.09-4.09-1.64-6.5-1.64
		C320.84,134.61,318.68,135.15,316.75,136.22z"/>
	<path d="M349.78,117.54h3.28v48.73h-3.28V117.54z"/>
	<path d="M366.66,122.89c-0.53-0.5-0.79-1.13-0.79-1.87c0-0.74,0.26-1.38,0.79-1.9c0.53-0.52,1.16-0.79,1.9-0.79
		c0.74,0,1.38,0.25,1.9,0.75c0.53,0.5,0.79,1.13,0.79,1.87c0,0.74-0.26,1.38-0.79,1.9c-0.53,0.53-1.16,0.79-1.9,0.79
		C367.82,123.65,367.18,123.4,366.66,122.89z M366.92,131.99h3.28v34.28h-3.28V131.99z"/>
	<path d="M401.07,164.1c-0.83,0.79-1.87,1.39-3.12,1.81c-1.25,0.42-2.55,0.62-3.91,0.62c-2.98,0-5.28-0.82-6.9-2.46
		c-1.62-1.64-2.43-3.93-2.43-6.86v-22.39h-6.3v-2.82h6.3v-7.49H388v7.49h10.9v2.82H388v22.06c0,2.23,0.54,3.93,1.61,5.09
		c1.07,1.16,2.66,1.74,4.76,1.74c2.14,0,3.92-0.63,5.32-1.9L401.07,164.1z"/>
	<path d="M437.91,149.91h-29.49c0.09,2.67,0.76,5.05,2.04,7.12c1.27,2.08,2.99,3.69,5.15,4.83c2.17,1.14,4.61,1.71,7.32,1.71
		c2.23,0,4.3-0.4,6.21-1.21c1.9-0.81,3.49-2,4.76-3.58l1.9,2.17c-1.49,1.8-3.36,3.18-5.61,4.14c-2.26,0.96-4.7,1.44-7.32,1.44
		c-3.42,0-6.46-0.74-9.13-2.23c-2.67-1.49-4.76-3.55-6.27-6.17c-1.51-2.63-2.27-5.62-2.27-9c0-3.33,0.71-6.31,2.13-8.96
		c1.42-2.65,3.38-4.72,5.88-6.21c2.49-1.49,5.3-2.23,8.41-2.23c3.11,0,5.9,0.73,8.37,2.2c2.47,1.47,4.42,3.51,5.85,6.14
		c1.42,2.63,2.13,5.61,2.13,8.93L437.91,149.91z M415.12,136.22c-1.93,1.07-3.47,2.58-4.63,4.53c-1.16,1.95-1.83,4.15-2,6.6h26.27
		c-0.13-2.45-0.79-4.64-1.97-6.57c-1.18-1.93-2.74-3.44-4.66-4.53c-1.93-1.09-4.09-1.64-6.5-1.64
		C419.21,134.61,417.05,135.15,415.12,136.22z"/>
</g>
<g>
	<path d="M184.39,181.76c1.44,1.21,2.16,2.88,2.16,5.01c0,2.13-0.72,3.79-2.16,4.99c-1.44,1.21-3.43,1.81-5.98,1.81h-5.35v6.29
		h-2.11v-19.92h7.46C180.96,179.94,182.95,180.55,184.39,181.76z M182.89,190.42c1.04-0.86,1.57-2.08,1.57-3.66
		c0-1.61-0.52-2.85-1.57-3.71c-1.04-0.86-2.55-1.29-4.52-1.29h-5.29v9.96h5.29C180.33,191.72,181.84,191.29,182.89,190.42z"/>
	<path d="M194.37,185.54c0.94-0.51,2.1-0.77,3.49-0.77v1.96l-0.48-0.03c-1.58,0-2.81,0.48-3.7,1.45c-0.89,0.97-1.34,2.32-1.34,4.07
		v7.63h-2.02v-14.97h1.93v2.93C192.72,186.81,193.43,186.06,194.37,185.54z"/>
	<path d="M201.47,181.19c-0.28-0.28-0.43-0.63-0.43-1.03c0-0.38,0.14-0.71,0.43-1c0.28-0.28,0.64-0.43,1.05-0.43
		c0.42,0,0.77,0.14,1.05,0.41c0.28,0.28,0.43,0.6,0.43,0.98c0,0.42-0.14,0.77-0.43,1.05c-0.28,0.28-0.64,0.43-1.05,0.43
		C202.1,181.62,201.75,181.47,201.47,181.19z M201.5,184.89h2.02v14.97h-2.02V184.89z"/>
	<path d="M221.73,184.89l-6.66,14.97h-2.08l-6.63-14.97h2.11l5.61,12.75l5.66-12.75H221.73z"/>
	<path d="M233.85,186.24c1.04,0.98,1.57,2.42,1.57,4.34v9.28h-1.94v-2.33c-0.46,0.78-1.12,1.39-2.01,1.82
		c-0.88,0.44-1.93,0.65-3.14,0.65c-1.67,0-3-0.4-3.98-1.2c-0.99-0.8-1.48-1.85-1.48-3.16c0-1.27,0.46-2.3,1.38-3.07
		c0.92-0.78,2.39-1.17,4.4-1.17h4.75v-0.91c0-1.29-0.36-2.27-1.08-2.95c-0.72-0.67-1.77-1.01-3.16-1.01c-0.95,0-1.86,0.16-2.73,0.47
		c-0.87,0.31-1.62,0.74-2.25,1.29l-0.91-1.51c0.76-0.64,1.67-1.14,2.73-1.49c1.06-0.35,2.18-0.53,3.36-0.53
		C231.31,184.78,232.81,185.26,233.85,186.24z M231.57,197.62c0.82-0.52,1.42-1.28,1.82-2.26v-2.45h-4.7
		c-2.56,0-3.84,0.89-3.84,2.67c0,0.87,0.33,1.56,1,2.06c0.66,0.5,1.59,0.75,2.79,0.75C229.78,198.41,230.76,198.15,231.57,197.62z"
		/>
	<path d="M248.79,198.95c-0.38,0.34-0.85,0.6-1.41,0.78c-0.56,0.18-1.14,0.27-1.75,0.27c-1.4,0-2.49-0.38-3.24-1.14
		c-0.76-0.76-1.14-1.83-1.14-3.22v-9.05h-2.67v-1.71h2.67v-3.27h2.02v3.27h4.55v1.71h-4.55v8.93c0,0.89,0.22,1.57,0.67,2.03
		c0.45,0.46,1.09,0.7,1.92,0.7c0.42,0,0.82-0.07,1.21-0.2c0.39-0.13,0.73-0.32,1.01-0.57L248.79,198.95z"/>
	<path d="M264.95,193h-12.52c0.11,1.56,0.71,2.81,1.79,3.77c1.08,0.96,2.45,1.44,4.1,1.44c0.93,0,1.78-0.17,2.56-0.5
		c0.78-0.33,1.45-0.82,2.02-1.47l1.14,1.31c-0.66,0.8-1.49,1.4-2.49,1.82c-1,0.42-2.09,0.63-3.29,0.63c-1.54,0-2.9-0.33-4.08-0.98
		c-1.19-0.65-2.11-1.56-2.77-2.72c-0.66-1.16-1-2.47-1-3.93c0-1.46,0.32-2.77,0.95-3.93c0.64-1.16,1.51-2.06,2.62-2.7
		c1.11-0.64,2.36-0.97,3.74-0.97c1.38,0,2.63,0.32,3.73,0.97c1.1,0.64,1.96,1.54,2.59,2.69c0.63,1.15,0.94,2.46,0.94,3.94
		L264.95,193z M254.1,187.89c-0.98,0.92-1.53,2.12-1.66,3.6h10.61c-0.13-1.48-0.69-2.68-1.66-3.6c-0.98-0.92-2.2-1.38-3.66-1.38
		C256.28,186.51,255.07,186.97,254.1,187.89z"/>
	<path d="M276.99,179.94h2.11v18.1h11.16v1.82h-13.26V179.94z"/>
	<path d="M293.29,181.19c-0.28-0.28-0.43-0.63-0.43-1.03c0-0.38,0.14-0.71,0.43-1c0.28-0.28,0.64-0.43,1.05-0.43
		c0.42,0,0.77,0.14,1.05,0.41c0.28,0.28,0.43,0.6,0.43,0.98c0,0.42-0.14,0.77-0.43,1.05c-0.28,0.28-0.64,0.43-1.05,0.43
		C293.93,181.62,293.58,181.47,293.29,181.19z M293.32,184.89h2.02v14.97h-2.02V184.89z"/>
	<path d="M324.07,186.4c1.07,1.08,1.61,2.67,1.61,4.78v8.68h-2.02v-8.48c0-1.56-0.38-2.74-1.12-3.56c-0.75-0.82-1.81-1.22-3.17-1.22
		c-1.56,0-2.78,0.48-3.67,1.44c-0.89,0.96-1.34,2.28-1.34,3.97v7.85h-2.02v-8.48c0-1.56-0.37-2.74-1.12-3.56
		c-0.75-0.82-1.82-1.22-3.2-1.22c-1.54,0-2.76,0.48-3.66,1.44c-0.9,0.96-1.35,2.28-1.35,3.97v7.85h-2.02v-14.97h1.93v2.73
		c0.53-0.91,1.27-1.61,2.22-2.11c0.95-0.49,2.04-0.74,3.27-0.74c1.25,0,2.34,0.27,3.26,0.8c0.92,0.53,1.61,1.32,2.06,2.36
		c0.55-0.99,1.34-1.76,2.38-2.32c1.03-0.56,2.21-0.84,3.54-0.84C321.52,184.78,323,185.32,324.07,186.4z"/>
	<path d="M331.14,181.19c-0.28-0.28-0.43-0.63-0.43-1.03c0-0.38,0.14-0.71,0.43-1c0.28-0.28,0.64-0.43,1.05-0.43
		c0.42,0,0.77,0.14,1.05,0.41c0.28,0.28,0.43,0.6,0.43,0.98c0,0.42-0.14,0.77-0.43,1.05c-0.28,0.28-0.64,0.43-1.05,0.43
		C331.78,181.62,331.42,181.47,331.14,181.19z M331.17,184.89h2.02v14.97h-2.02V184.89z"/>
	<path d="M346.71,198.95c-0.38,0.34-0.85,0.6-1.41,0.78c-0.56,0.18-1.14,0.27-1.75,0.27c-1.4,0-2.49-0.38-3.24-1.14
		c-0.76-0.76-1.14-1.83-1.14-3.22v-9.05h-2.67v-1.71h2.67v-3.27h2.02v3.27h4.55v1.71h-4.55v8.93c0,0.89,0.22,1.57,0.67,2.03
		c0.45,0.46,1.09,0.7,1.92,0.7c0.42,0,0.82-0.07,1.21-0.2s0.73-0.32,1.01-0.57L346.71,198.95z"/>
	<path d="M362.87,193h-12.52c0.11,1.56,0.71,2.81,1.79,3.77c1.08,0.96,2.45,1.44,4.1,1.44c0.93,0,1.78-0.17,2.56-0.5
		c0.78-0.33,1.45-0.82,2.02-1.47l1.14,1.31c-0.66,0.8-1.49,1.4-2.49,1.82c-1,0.42-2.09,0.63-3.29,0.63c-1.54,0-2.9-0.33-4.08-0.98
		c-1.19-0.65-2.11-1.56-2.77-2.72c-0.66-1.16-1-2.47-1-3.93c0-1.46,0.32-2.77,0.95-3.93c0.64-1.16,1.51-2.06,2.62-2.7
		c1.11-0.64,2.36-0.97,3.74-0.97c1.38,0,2.63,0.32,3.73,0.97s1.96,1.54,2.59,2.69c0.63,1.15,0.94,2.46,0.94,3.94L362.87,193z
		 M352.01,187.89c-0.98,0.92-1.53,2.12-1.66,3.6h10.61c-0.13-1.48-0.69-2.68-1.66-3.6c-0.98-0.92-2.2-1.38-3.66-1.38
		C354.2,186.51,352.99,186.97,352.01,187.89z"/>
	<path d="M380.68,178.74v21.11h-1.93v-2.96c-0.61,1.01-1.41,1.77-2.4,2.31c-1,0.53-2.12,0.8-3.37,0.8c-1.4,0-2.67-0.32-3.81-0.97
		c-1.14-0.64-2.03-1.55-2.67-2.7c-0.64-1.16-0.97-2.48-0.97-3.96c0-1.48,0.32-2.8,0.97-3.96c0.64-1.16,1.54-2.05,2.67-2.69
		c1.14-0.64,2.41-0.95,3.81-0.95c1.21,0,2.31,0.25,3.29,0.75s1.78,1.24,2.4,2.21v-8.99H380.68z M375.97,197.48
		c0.84-0.48,1.51-1.17,1.99-2.06c0.48-0.89,0.73-1.91,0.73-3.04c0-1.14-0.24-2.15-0.73-3.04c-0.48-0.89-1.15-1.58-1.99-2.06
		c-0.84-0.48-1.79-0.73-2.83-0.73c-1.06,0-2.02,0.24-2.86,0.73c-0.84,0.48-1.51,1.17-1.99,2.06c-0.48,0.89-0.73,1.91-0.73,3.04
		c0,1.14,0.24,2.15,0.73,3.04c0.48,0.89,1.15,1.58,1.99,2.06c0.84,0.48,1.8,0.73,2.86,0.73
		C374.18,198.21,375.13,197.97,375.97,197.48z"/>
</g>
<g>
	<path class="st0" d="M306.99,89.03L256.74,1.89C256.06,0.72,254.81,0,253.46,0h-53.33c-2.9,0-4.72,3.13-3.29,5.66l47.46,83.37
		H306.99z"/>
	<path class="st1" d="M244.22,89.03l50.26-87.14c0.68-1.17,1.93-1.89,3.28-1.89l53.33,0c2.9,0,4.72,3.13,3.29,5.66l-47.46,83.37
		H244.22z"/>
	<polygon class="st2" points="275.61,34.61 244.26,88.96 244.31,89.03 306.91,89.03 306.95,88.96 	"/>
</g>
</svg>
